<?xml version="1.0" encoding="utf-8"?>
<!-- Generator: Adobe Illustrator 23.0.3, SVG Export Plug-In . SVG Version: 6.00 Build 0)  -->
<svg version="1.1" id="Layer_1" xmlns="http://www.w3.org/2000/svg" xmlns:xlink="http://www.w3.org/1999/xlink" x="0px" y="0px"
	 viewBox="0 0 485.13 90" style="enable-background:new 0 0 485.13 90;" xml:space="preserve">
<style type="text/css">
	.st0{fill:#008BCE;}
</style>
<g>
	<path class="st0" d="M62.85,27.27c0.46,4.22,4.02,7.5,8.36,7.52h0c0.01,0,0.03,0.01,0.03,0.03c0,0.02-0.01,0.03-0.03,0.03h0
		c-4.64,0.02-8.39,3.78-8.41,8.41c0,0.02-0.01,0.03-0.03,0.03c-0.02,0-0.03-0.01-0.03-0.03c-0.02-4.64-3.77-8.4-8.42-8.41v0
		c-0.02,0-0.03-0.01-0.03-0.03c0-0.02,0.01-0.03,0.03-0.03c4.48-0.01,8.13-3.51,8.4-7.92V0H27.27v27.27H0v35.45h27.27V90h35.45
		V78.33c-0.03-8.55-6.95-15.48-15.51-15.49v0c-0.03,0-0.05-0.02-0.05-0.05s0.02-0.05,0.05-0.05c8.56-0.02,15.48-6.94,15.51-15.49
		c0-0.03,0.02-0.05,0.05-0.05c0.03,0,0.05,0.02,0.05,0.05v0c0.03,8.46,6.81,15.33,15.25,15.49H90V27.27H62.85z M58.63,48.26
		L58.63,48.26c-4.64,0.02-8.39,3.78-8.41,8.41c0,0.02-0.01,0.03-0.03,0.03c-0.02,0-0.03-0.01-0.03-0.03
		c-0.02-4.64-3.78-8.4-8.42-8.41c-0.01,0-0.03-0.01-0.03-0.03c0-0.02,0.01-0.03,0.03-0.03c4.65-0.01,8.41-3.77,8.42-8.41
		c0-0.01,0.01-0.03,0.03-0.03c0.01,0,0.02,0.01,0.03,0.03v0c0.02,4.64,3.77,8.39,8.41,8.41c0.02,0,0.03,0.01,0.03,0.03
		C58.66,48.25,58.65,48.26,58.63,48.26 M83.78,48.26L83.78,48.26c-4.64,0.02-8.39,3.78-8.41,8.41c0,0.02-0.01,0.03-0.03,0.03
		c-0.01,0-0.03-0.01-0.03-0.03c-0.02-4.64-3.78-8.4-8.42-8.41c-0.02,0-0.03-0.01-0.03-0.03c0-0.02,0.01-0.03,0.03-0.03
		c4.65-0.01,8.41-3.77,8.42-8.41c0-0.01,0.01-0.03,0.03-0.03c0.02,0,0.03,0.01,0.03,0.03v0c0.02,4.64,3.77,8.39,8.41,8.41
		c0.02,0,0.03,0.01,0.03,0.03C83.81,48.25,83.8,48.26,83.78,48.26"/>
	<g>
		<path class="st0" d="M171.02,39.71c0-2.76,1.41-3.69,3.36-3.69h0.82c2,0,3.47,0.87,3.47,3.69v11.65c0,3.52,1.79,5.69,4.99,5.69
			c2.55,0,4.61-1.41,5.69-3.47V39.71c0-2.76,1.41-3.69,3.41-3.69h0.76c2.06,0,3.47,0.87,3.47,3.69v22.38c0,0.27-1.3,0.87-2.87,0.87
			c-1.9,0-4.01-0.81-4.61-4.17c-1.84,2.71-4.55,4.66-8.67,4.66c-6.94,0-9.81-4.88-9.81-10.95V39.71z"/>
		<path class="st0" d="M205.11,42.25h-1.3c-2.17,0-3.2-0.92-3.2-2.65v-0.49c0-1.84,1.03-2.82,3.2-2.82h1.3v-3.36
			c0-2.49,1.3-3.69,3.47-3.69h0.65c2.06,0,3.41,0.87,3.41,3.69v3.36h4.61c2.17,0,3.09,0.92,3.09,2.71v0.43
			c0,1.84-0.97,2.82-3.14,2.82h-4.72v11.27c0,2.6,0.86,3.9,2.93,3.9c1.57,0,2.6-0.76,3.41-1.79c0.11-0.16,1.84,0.87,1.84,2.98
			c0,2.65-2.65,4.82-6.99,4.82c-5.85,0-8.56-3.09-8.56-9.05V42.25z"/>
		<path class="st0" d="M224.52,25.94c0-0.27,1.35-0.87,2.87-0.87c2.28,0,4.77,1.19,4.77,6.13v9.32c1.68-2.76,4.39-4.82,8.56-4.82
			c6.88,0,9.81,4.98,9.81,11.17v12.47c0,2.76-1.41,3.63-3.36,3.63h-0.81c-2.06,0-3.47-0.81-3.47-3.63V47.95
			c0-3.69-1.84-5.85-4.82-5.85c-3.63,0-5.91,2.39-5.91,6.18v11.06c0,2.76-1.41,3.63-3.36,3.63h-0.81c-2.06,0-3.47-0.81-3.47-3.63
			V25.94z"/>
		<path class="st0" d="M274.21,47.13c-0.16-3.69-2.49-6.13-6.18-6.13c-3.58,0-6.29,2.55-6.83,6.13H274.21z M268.14,35.7
			c7.81,0,13.17,5.47,13.17,13.22v0.54c-0.05,1.36-0.43,2.11-1.84,2.11H261.2c0.54,3.96,3.58,6.29,7.7,6.29
			c4.01,0,6.23-1.79,7.48-3.9c0.05-0.11,3.69,0.38,3.69,3.41c0,2.87-4.06,6.07-11.43,6.07c-8.62,0-14.31-5.37-14.31-13.71
			C254.32,41.66,260.12,35.7,268.14,35.7"/>
		<path class="st0" d="M285.21,36.89c0-0.22,1.36-0.87,2.87-0.87c2,0,4.17,0.92,4.66,4.5c1.08-3.04,3.25-4.82,6.45-4.82
			c3.09,0,4.93,1.73,4.93,4.44c0,3.04-2.33,4.12-2.44,4.01c-0.81-0.76-2-1.3-3.47-1.3c-3.74,0-5.37,3.25-5.37,8.56v7.91
			c0,2.76-1.41,3.63-3.36,3.63h-0.81c-2.06,0-3.47-0.82-3.47-3.63V36.89z"/>
		<path class="st0" d="M307.83,36.89c0-0.22,1.35-0.87,2.87-0.87c1.95,0,4.07,0.92,4.61,4.34c1.84-2.71,4.61-4.66,8.73-4.66
			c6.88,0,9.81,4.88,9.81,10.95v12.68c0,2.76-1.41,3.63-3.36,3.63h-0.81c-2.06,0-3.47-0.82-3.47-3.63V47.78
			c0-3.52-1.79-5.69-4.88-5.69c-2.71,0-4.77,1.41-5.85,3.47v13.76c0,2.76-1.41,3.63-3.36,3.63h-0.81c-2.06,0-3.47-0.82-3.47-3.63
			V36.89z"/>
		<path class="st0" d="M366.75,26.97c9.32,0,13.5,5.09,13.5,7.91c0,3.47-4.5,4.34-4.61,4.06c-1.73-3.04-5.04-4.77-8.57-4.77
			c-5.91,0-10.19,4.45-10.19,11c0,6.5,4.34,11.06,10.24,11.06c4.06,0,7.37-2.01,8.73-5.31c0.11-0.27,4.77,0.6,4.77,4.07
			c0,2.98-4.33,8.45-13.98,8.45c-10.62,0-17.99-7.48-17.99-18.21C348.65,34.56,356.02,26.97,366.75,26.97"/>
		<path class="st0" d="M384.63,36.89c0-0.22,1.36-0.87,2.87-0.87c2,0,4.17,0.92,4.66,4.5c1.08-3.04,3.25-4.82,6.45-4.82
			c3.09,0,4.93,1.73,4.93,4.44c0,3.04-2.33,4.12-2.44,4.01c-0.81-0.76-2.01-1.3-3.47-1.3c-3.74,0-5.37,3.25-5.37,8.56v7.91
			c0,2.76-1.41,3.63-3.36,3.63h-0.81c-2.06,0-3.47-0.82-3.47-3.63V36.89z"/>
		<path class="st0" d="M419.33,57.43c4.23,0,7.37-3.31,7.37-7.81c0-4.61-3.09-7.97-7.37-7.97c-4.28,0-7.42,3.31-7.42,7.86
			C411.91,54.12,415.05,57.43,419.33,57.43 M419.39,35.7c8.35,0,14.09,5.69,14.09,13.93s-5.75,13.82-14.2,13.82
			c-8.4,0-14.09-5.58-14.09-13.93C405.19,41.39,410.99,35.7,419.39,35.7"/>
		<path class="st0" d="M438.36,54.45c1.84,1.95,4.82,3.52,8.73,3.52c2.98,0,4.66-0.87,4.66-2.55c0-2-2.12-2.33-5.69-3.09
			c-3.63-0.81-9.32-2.01-9.32-8.02c0-5.15,4.34-8.56,11.06-8.56c7.16,0,10.73,2.6,10.73,5.64c0,2-2.33,3.41-2.49,3.25
			c-1.79-2.06-4.66-3.52-7.75-3.52c-2.87,0-4.5,0.92-4.5,2.6c0,1.9,2.11,2.17,5.63,2.98c3.74,0.81,9.76,2.06,9.76,8.07
			c0,5.31-4.39,8.56-11.65,8.56c-7.75,0-11.49-2.71-11.49-5.74C436.03,55.64,438.2,54.29,438.36,54.45"/>
		<path class="st0" d="M464.32,54.45c1.84,1.95,4.83,3.52,8.73,3.52c2.98,0,4.66-0.87,4.66-2.55c0-2-2.12-2.33-5.69-3.09
			c-3.63-0.81-9.32-2.01-9.32-8.02c0-5.15,4.34-8.56,11.06-8.56c7.16,0,10.73,2.6,10.73,5.64c0,2-2.33,3.41-2.49,3.25
			c-1.79-2.06-4.66-3.52-7.75-3.52c-2.87,0-4.5,0.92-4.5,2.6c0,1.9,2.11,2.17,5.64,2.98c3.74,0.81,9.75,2.06,9.75,8.07
			c0,5.31-4.39,8.56-11.65,8.56c-7.75,0-11.49-2.71-11.49-5.74C461.99,55.64,464.16,54.29,464.32,54.45"/>
		<path class="st0" d="M110.76,52.39c2.11,2.55,6.13,4.83,10.46,4.83c4.17,0,6.4-1.57,6.4-4.28c0-3.14-3.52-3.63-7.64-4.55
			c-5.64-1.25-11.38-3.41-11.38-10.57c0-6.5,5.26-10.84,13.71-10.84s12.58,3.41,12.58,6.4c0,2.49-3.04,4.33-3.2,4.17
			c-2.06-2.44-5.58-4.34-9.32-4.34c-3.85,0-6.07,1.63-6.07,4.17c0,3.04,3.15,3.31,7.48,4.28c6.34,1.41,11.87,4.06,11.87,10.68
			c0,6.99-5.09,11.11-14.36,11.11c-9.32,0-13.55-3.85-13.55-7.05C107.72,54.18,110.48,52.17,110.76,52.39"/>
		<path class="st0" d="M153.09,57.43c4.23,0,7.37-3.31,7.37-7.81c0-4.61-3.09-7.97-7.37-7.97c-4.28,0-7.42,3.31-7.42,7.86
			C145.67,54.12,148.81,57.43,153.09,57.43 M153.14,35.7c8.35,0,14.09,5.69,14.09,13.93s-5.74,13.82-14.2,13.82
			c-8.4,0-14.09-5.58-14.09-13.93C138.94,41.39,144.74,35.7,153.14,35.7"/>
	</g>
</g>
</svg>
